# xmcd
#
# Track frame offsets: 
#        150
#        12035
#        26089
#        39267
#        52160
#        66434
#        79418
#        93403
#        106106
#        117164
#        131215
#        143889
#        156006
#        167671
#        180455
#        192870
#        206059
#        216714
#        227727
#        240818
#        251414
#        264832
#        279083
#        293095
#        304536
#        315763
#
# Disc length: 4389 seconds
#
# Revision: 2
# Processed by: cddbd v1.5.2PL0 Copyright (c) Steve Scherf et al.
# Submitted via: ExactAudioCopyFreeDBPlugin 1.0
#
DISCID=6111231a
DTITLE=Sleepy John Estes - Jailhouse Blues
DYEAR=1900
DGENRE=
TTITLE0=Jack And Jill Blues
TTITLE1=Poor Man's Friend
TTITLE2=Hobo Jungle Blues
TTITLE3=Airplane Blues
TTITLE4=Floating Bridge
TTITLE5=Need More Blues
TTITLE6=Fire Departement Blues
TTITLE7=New Someday Baby
TTITLE8=Liquor Store Blues
TTITLE9=Brownsville Blues
TTITLE10=Everybody Oughta Make A Change
TTITLE11=Easin' Back To Tennessee
TTITLE12=Clean Up At Home
TTITLE13=Special Agent
TTITLE14=Drop Down
TTITLE15=Jailhouse Blues
TTITLE16=Time Is Drawing Near
TTITLE17=Tell Me How About It
TTITLE18=Mailman Blues
TTITLE19=Mary Come On Home
TTITLE20=Working Man Blues
TTITLE21=Don't You Want To Know
TTITLE22=Lawyer Clark Blues
TTITLE23=You Shouldn't Do That
TTITLE24=Little Laura Blues
TTITLE25=When The Saints Go Marching In
EXTD=
EXTT0=
EXTT1=
EXTT2=
EXTT3=
EXTT4=
EXTT5=
EXTT6=
EXTT7=
EXTT8=
EXTT9=
EXTT10=
EXTT11=
EXTT12=
EXTT13=
EXTT14=
EXTT15=
EXTT16=
EXTT17=
EXTT18=
EXTT19=
EXTT20=
EXTT21=
EXTT22=
EXTT23=
EXTT24=
EXTT25=
PLAYORDER=
